PathFileType	4	(X/Y/Z)	/Users/itak/Documents/Research/Walk-IL/dataset/trc/00160_00008.trc
DataRate	CameraRate	NumFrames	NumMarkers	Units	OrigDataRate	OrigDataStartFrame	OrigNumFrames
100.000000	100.000000	4	53	mm	100.000000	69	559
Frame#	Time	RPSI			LPSI			L3			STRN			T10			C7			CLAV			RBAK			LBAK			LSHO			LUPA			LAEL			LAOL			LWTS			LWPS			LFRA			LIFD			LHPS			LHTS			RSHO			RUPA			RAEL			RAOL			RWTS			RWPS			RFRA			RIFD			RHTS			RHPS			RBHD			LFHD			RFHD			LBHD			LHIP			RHIP			RASI			LASI			LKNE			LTHI			LANK			LTIP			LTOE			LMT1			LMT5			LHEE			RKNE			RTHI			RANK			RTIP			RTOE			RMT1			RMT5			RHEE			
		X1	Y1	Z1	X2	Y2	Z2	X3	Y3	Z3	X4	Y4	Z4	X5	Y5	Z5	X6	Y6	Z6	X7	Y7	Z7	X8	Y8	Z8	X9	Y9	Z9	X10	Y10	Z10	X11	Y11	Z11	X12	Y12	Z12	X13	Y13	Z13	X14	Y14	Z14	X15	Y15	Z15	X16	Y16	Z16	X17	Y17	Z17	X18	Y18	Z18	X19	Y19	Z19	X20	Y20	Z20	X21	Y21	Z21	X22	Y22	Z22	X23	Y23	Z23	X24	Y24	Z24	X25	Y25	Z25	X26	Y26	Z26	X27	Y27	Z27	X28	Y28	Z28	X29	Y29	Z29	X30	Y30	Z30	X31	Y31	Z31	X32	Y32	Z32	X33	Y33	Z33	X34	Y34	Z34	X35	Y35	Z35	X36	Y36	Z36	X37	Y37	Z37	X38	Y38	Z38	X39	Y39	Z39	X40	Y40	Z40	X41	Y41	Z41	X42	Y42	Z42	X43	Y43	Z43	X44	Y44	Z44	X45	Y45	Z45	X46	Y46	Z46	X47	Y47	Z47	X48	Y48	Z48	X49	Y49	Z49	X50	Y50	Z50	X51	Y51	Z51	X52	Y52	Z52	X53	Y53	Z53	

70	0.6900000000000001	-1906.571655273438	1055.158203125	6.371540546417236	-1899.8125	1051.97021484375	-116.8509140014648	-1901.754028320312	1091.3623046875	-53.65051651000977	-1642.810791015625	1292.385375976562	-55.41259765625	-1935.228271484375	1252.192138671875	-62.48861312866211	-1861.749877929688	1519.252197265625	-76.02269744873047	-1666.333129882812	1406.9560546875	-66.57502746582031	-1936.865844726562	1347.10693359375	33.80895233154297	-1867.891479492188	1493.805419921875	-177.6178894042969	-1789.054443359375	1475.791015625	-254.4188690185547	-1820.405029296875	1341.875610351562	-324.5915832519531	-1797.037109375	1121.567260742188	-336.787109375	-1853.1083984375	1108.95654296875	-270.1243896484375	-1686.966430664062	894.4666748046875	-279.2565002441406	-1760.757690429688	870.052490234375	-333.0370483398438	-1778.55859375	1011.390808105469	-344.552978515625	-1674.847534179688	710.9462280273438	-247.9822998046875	-1737.838989257812	801.1322631835938	-323.8303833007812	-1671.499877929688	815.2611083984375	-294.6496276855469	-1803.688354492188	1497.66650390625	106.9368438720703	-1825.720947265625	1431.4501953125	177.4804077148438	-1838.13671875	1140.16552734375	229.5799865722656	-1846.048828125	1134.351440429688	131.4994964599609	-1690.629272460938	917.5233154296875	200.9542999267578	-1763.401000976562	897.3864135742188	250.0936126708984	-1809.803955078125	1067.872924804688	245.3230285644531	-1671.516357421875	730.5572509765625	174.3161468505859	-1659.372802734375	824.9329223632812	208.1657104492188	-1731.819702148438	814.4057006835938	244.8169555664062	-1804.55517578125	1675.116333007812	-1.226030945777893	-1642.285888671875	1725.187866210938	-138.2248382568359	-1636.485595703125	1725.323852539062	-9.057365417480469	-1816.630737304688	1682.036010742188	-138.2295074462891	-1792.91455078125	987.5757446289062	-232.2577819824219	-1757.15185546875	1012.858581542969	135.0670318603516	-1670.342041015625	1040.063110351562	83.26909637451172	-1668.9873046875	1024.723266601562	-175.1161956787109	-1801.653442382812	494.3213806152344	-197.3810119628906	-1783.439819335938	635.953125	-224.6337890625	-1903.083740234375	41.87899780273438	-205.6301422119141	-1852.162109375	276.9051208496094	-214.9658203125	-1682.80517578125	38.68051528930664	-189.4248504638672	-1731.406494140625	38.53694152832031	-139.4114227294922	-1797.028198242188	32.92764282226562	-250.3163452148438	-1950.103515625	41.31058883666992	-132.3342132568359	-1760.839233398438	512.5524291992188	111.7590637207031	-1709.121337890625	778.5068359375	146.2727355957031	-1885.988891601562	39.01588821411133	112.0292358398438	-1760.146606445312	391.225341796875	93.68696594238281	-1662.284301757812	38.58133316040039	81.22586059570312	-1718.142822265625	35.87306976318359	34.28030014038086	-1774.11767578125	34.49562072753906	148.9361114501953	-1936.188720703125	38.41032791137695	44.72648239135742	
71	0.7000000000000001	-1906.490356445312	1055.215942382812	7.046656608581543	-1899.884399414062	1052.076782226562	-116.2102584838867	-1901.678955078125	1091.380004882812	-52.94840240478516	-1642.665649414062	1292.341796875	-54.95532989501953	-1935.051635742188	1252.32763671875	-61.78770065307617	-1861.411865234375	1519.357788085938	-75.40909576416016	-1666.082641601562	1406.917358398438	-66.05990600585938	-1936.579956054688	1347.240234375	34.51174163818359	-1867.6337890625	1493.894165039062	-176.9851989746094	-1788.857421875	1475.830078125	-253.8425140380859	-1820.304321289062	1341.912109375	-323.9840393066406	-1797.10009765625	1121.553344726562	-336.08056640625	-1853.148193359375	1109.034545898438	-269.3854675292969	-1687.260009765625	894.3287963867188	-278.4938049316406	-1761.05810546875	870.0050048828125	-332.2702331542969	-1778.720581054688	1011.360900878906	-343.8175048828125	-1675.370727539062	710.8273315429688	-247.1678314208984	-1738.279174804688	801.0841674804688	-323.0731506347656	-1671.896606445312	815.1380004882812	-293.8580017089844	-1803.243286132812	1497.739990234375	107.5399856567383	-1825.315185546875	1431.537109375	178.1167602539062	-1837.95556640625	1140.223266601562	230.1205596923828	-1845.913696289062	1134.462768554688	132.0473327636719	-1690.556030273438	917.5316162109375	201.3110046386719	-1763.319702148438	897.3831787109375	250.4834594726562	-1809.627563476562	1067.915161132812	245.8689422607422	-1671.4677734375	730.578369140625	174.6013336181641	-1659.382446289062	824.9939575195312	208.5721435546875	-1731.701171875	814.4436645507812	245.1459503173828	-1803.802124023438	1675.221069335938	-0.4816510379314423	-1641.942260742188	1725.01220703125	-138.0982666015625	-1635.64404296875	1725.128784179688	-8.957610130310059	-1816.326416015625	1682.127563476562	-137.4004211425781	-1793.057983398438	987.6541137695312	-231.6926422119141	-1756.82470703125	1012.767456054688	135.5758209228516	-1670.203369140625	1040.000122070312	83.59770965576172	-1669.0595703125	1024.784057617188	-174.7461853027344	-1801.751708984375	494.3801574707031	-197.189208984375	-1783.603515625	636.01123046875	-224.3793640136719	-1903.078735351562	41.88708877563477	-205.6261291503906	-1852.213134765625	276.9553833007812	-214.8473663330078	-1682.80029296875	38.67451095581055	-189.43798828125	-1731.401000976562	38.54627990722656	-139.4199981689453	-1796.994750976562	32.88745498657227	-250.3218383789062	-1950.080078125	41.32885360717773	-132.3225555419922	-1760.688720703125	512.48486328125	111.9095153808594	-1708.35302734375	778.6038208007812	146.4203186035156	-1885.97802734375	39.02079010009766	112.0286865234375	-1759.93505859375	391.1607666015625	93.82601928710938	-1662.27099609375	38.56967544555664	81.22151947021484	-1718.128540039062	35.85534286499023	34.26114654541016	-1774.102905273438	34.50561141967773	148.9241638183594	-1936.186645507812	38.43343734741211	44.73666381835938	
72	0.71	-1906.375244140625	1055.274047851562	7.759853839874268	-1899.9423828125	1052.191040039062	-115.5441131591797	-1901.609130859375	1091.415893554688	-52.21773910522461	-1642.518798828125	1292.300170898438	-54.47573852539062	-1934.864013671875	1252.470703125	-61.04978942871094	-1861.05517578125	1519.470581054688	-74.75449371337891	-1665.799438476562	1406.880615234375	-65.5146484375	-1936.264892578125	1347.382080078125	35.24083709716797	-1867.35986328125	1493.996948242188	-176.3224334716797	-1788.649780273438	1475.880004882812	-253.2277984619141	-1820.192626953125	1341.959228515625	-323.3405151367188	-1797.153930664062	1121.555786132812	-335.3622436523438	-1853.180419921875	1109.1201171875	-268.6363220214844	-1687.5322265625	894.1795654296875	-277.7254638671875	-1761.357055664062	869.974853515625	-331.5155334472656	-1778.866577148438	1011.340515136719	-343.0732421875	-1675.877685546875	710.71484375	-246.3771057128906	-1738.695678710938	801.0474853515625	-322.3257446289062	-1672.2841796875	815.0201416015625	-293.0851440429688	-1802.778564453125	1497.8115234375	108.1787872314453	-1824.890014648438	1431.624755859375	178.783935546875	-1837.75634765625	1140.292236328125	230.7164459228516	-1845.77587890625	1134.589965820312	132.6565856933594	-1690.482421875	917.53515625	201.6993713378906	-1763.238647460938	897.3807983398438	250.9100952148438	-1809.431518554688	1067.955078125	246.4560089111328	-1671.427612304688	730.6093139648438	174.9044189453125	-1659.41064453125	825.0447387695312	208.9955596923828	-1731.583618164062	814.4644775390625	245.4993591308594	-1803.012817382812	1675.331298828125	0.30096435546875	-1641.56298828125	1724.833129882812	-137.9400177001953	-1634.751098632812	1724.918090820312	-8.823530197143555	-1815.980102539062	1682.240234375	-136.5505828857422	-1793.18408203125	987.7342529296875	-231.0913238525391	-1756.50341796875	1012.669616699219	136.1202545166016	-1670.076293945312	1039.933471679688	83.95275115966797	-1669.197265625	1024.849853515625	-174.3569183349609	-1801.832397460938	494.4459838867188	-196.9832305908203	-1783.762939453125	636.0778198242188	-224.1180114746094	-1903.069702148438	41.89886093139648	-205.6181640625	-1852.241943359375	277.0078125	-214.7149353027344	-1682.792724609375	38.6687126159668	-189.4503479003906	-1731.391357421875	38.55301666259766	-139.4271850585938	-1796.9609375	32.85002136230469	-250.3245086669922	-1950.052856445312	41.3483772277832	-132.3056793212891	-1760.611328125	512.43408203125	112.082893371582	-1707.657470703125	778.6729736328125	146.6025543212891	-1885.964111328125	39.02835464477539	112.0264129638672	-1759.777099609375	391.1201782226562	93.97484588623047	-1662.25244140625	38.55146026611328	81.21551513671875	-1718.11279296875	35.83560562133789	34.24236679077148	-1774.090454101562	34.51254272460938	148.9130249023438	-1936.1796875	38.47204971313477	44.74570083618164	
73	0.72	-1906.228759765625	1055.337890625	8.505242347717285	-1899.981689453125	1052.326538085938	-114.8486099243164	-1901.54638671875	1091.478393554688	-51.45794296264648	-1642.343505859375	1292.262451171875	-53.96527481079102	-1934.674926757812	1252.625366210938	-60.27616500854492	-1860.680419921875	1519.5869140625	-74.05628967285156	-1665.482421875	1406.849365234375	-64.93981170654297	-1935.919067382812	1347.532348632812	36.00566482543945	-1867.067993164062	1494.10791015625	-175.6257934570312	-1788.432983398438	1475.939453125	-252.5745086669922	-1820.07421875	1342.015625	-322.6605224609375	-1797.197021484375	1121.577392578125	-334.6298522949219	-1853.206909179688	1109.212768554688	-267.8770446777344	-1687.790405273438	894.0263061523438	-276.9598999023438	-1761.655883789062	869.9637451171875	-330.7724914550781	-1778.999633789062	1011.331787109375	-342.3200073242188	-1676.349975585938	710.6099243164062	-245.6050567626953	-1739.0869140625	801.0208129882812	-321.5850830078125	-1672.6591796875	814.9093017578125	-292.3357849121094	-1802.293090820312	1497.881469726562	108.8515472412109	-1824.4384765625	1431.712280273438	179.4795227050781	-1837.532104492188	1140.373779296875	231.3740386962891	-1845.619873046875	1134.723266601562	133.3319244384766	-1690.402221679688	917.5320434570312	202.1230010986328	-1763.1435546875	897.3809814453125	251.3768463134766	-1809.214233398438	1067.993408203125	247.0802307128906	-1671.396362304688	730.6468505859375	175.2235412597656	-1659.459350585938	825.073974609375	209.4278106689453	-1731.4658203125	814.4685668945312	245.8849792480469	-1802.18798828125	1675.450439453125	1.120337605476379	-1641.143676757812	1724.648071289062	-137.7452087402344	-1633.811157226562	1724.692749023438	-8.64968204498291	-1815.586303710938	1682.371826171875	-135.6767883300781	-1793.2919921875	987.8174438476562	-230.4582672119141	-1756.2080078125	1012.582885742188	136.7041778564453	-1669.95654296875	1039.860717773438	84.33673095703125	-1669.405883789062	1024.9130859375	-173.9452514648438	-1801.895874023438	494.5166320800781	-196.7587432861328	-1783.919311523438	636.1531982421875	-223.8446807861328	-1903.05712890625	41.91356658935547	-205.6068572998047	-1852.253540039062	277.06298828125	-214.5691528320312	-1682.783447265625	38.66376876831055	-189.4611968994141	-1731.37841796875	38.55743408203125	-139.4332122802734	-1796.934204101562	32.82135391235352	-250.3246307373047	-1950.023681640625	41.36823272705078	-132.2849426269531	-1760.602661132812	512.4003295898438	112.2859344482422	-1707.075317382812	778.709228515625	146.8269805908203	-1885.948974609375	39.03725051879883	112.0232162475586	-1759.678833007812	391.1026611328125	94.13713073730469	-1662.230834960938	38.52762603759766	81.20803070068359	-1718.098022460938	35.8160400390625	34.2266731262207	-1774.082397460938	34.51335525512695	148.9050598144531	-1936.169799804688	38.52341842651367	44.75512313842773	
